<svg aria-hidden="true" style="position: absolute; width: 0; height: 0; overflow: hidden;" version="1.1" xmlns="http://www.w3.org/2000/svg" xmlns:xlink="http://www.w3.org/1999/xlink">
<defs>
<symbol id="icon-arrow" viewBox="0 0 47 32">
<path stroke-linejoin="miter" stroke-linecap="butt" stroke-miterlimit="4" stroke-width="1.8824" d="M38.992 18.588c-0.246-1.84-0.404-3.482-0.476-4.927-0.031-1.468 0.025-2.739 0.167-3.812l-35.708 20.616-1.689-2.926 35.708-20.616c-1.028-0.459-2.169-1.070-3.425-1.831-1.215-0.785-2.545-1.72-3.988-2.806l2.144-1.238c4.53 1.905 8.673 2.857 12.429 2.856l0.724 1.254c-1.906 3.206-3.153 7.27-3.741 12.192l-2.144 1.238z"></path>
</symbol>
<symbol id="icon-facebook" viewBox="0 0 32 32">
<path d="M19.52 4.64c0.24 0 0.48 0 0.96 0v3.6c-0.24 0-0.72 0-1.2 0s-0.96 0-1.2 0.24c-0.24 0.24-0.24 0.48-0.24 1.040 0 0.48 0 0.8 0 1.28h2.64v3.040h-2.64v13.2h-4.080v-13.28h-2.16v-3.040h2.16v-1.040c0-1.76 0.24-3.040 0.72-3.6 0.72-1.040 2.16-1.52 4.32-1.52 0.24 0.080 0.48 0.080 0.72 0.080z"></path>
</symbol>
<symbol id="icon-instagram" viewBox="0 0 32 32">
<path d="M28.717 10.756c-0.016-1.074-0.215-2.14-0.596-3.145-0.667-1.716-2.024-3.073-3.743-3.737-0.994-0.373-2.044-0.573-3.108-0.596-1.368-0.061-1.801-0.078-5.273-0.078s-3.917 0-5.274 0.078c-1.062 0.023-2.112 0.223-3.106 0.596-1.719 0.664-3.078 2.021-3.743 3.737-0.374 0.992-0.576 2.041-0.596 3.101-0.061 1.367-0.080 1.8-0.080 5.265s0 3.909 0.080 5.265c0.021 1.062 0.222 2.109 0.596 3.104 0.667 1.714 2.024 3.071 3.744 3.735 0.989 0.386 2.040 0.605 3.106 0.639 1.369 0.061 1.803 0.080 5.274 0.080s3.916 0 5.274-0.080c1.062-0.021 2.113-0.221 3.108-0.595 1.719-0.666 3.076-2.022 3.743-3.737 0.374-0.994 0.574-2.041 0.596-3.104 0.061-1.365 0.080-1.798 0.080-5.265-0.003-3.466-0.003-3.906-0.082-5.264zM15.99 22.531c-3.631 0-6.572-2.936-6.572-6.561s2.941-6.561 6.572-6.561c3.628 0 6.572 2.936 6.572 6.561s-2.944 6.561-6.572 6.561zM22.823 10.696c-0.849 0-1.532-0.684-1.532-1.53s0.684-1.53 1.532-1.53c0.846 0 1.531 0.684 1.531 1.53s-0.685 1.53-1.531 1.53z"></path>
<path d="M15.992 19.976c2.211 0 4.004-1.793 4.004-4.004s-1.793-4.004-4.004-4.004c-2.211 0-4.004 1.793-4.004 4.004s1.793 4.004 4.004 4.004z"></path>
</symbol>
<symbol id="icon-ornament" viewBox="0 0 36 32">
<path d="M36.012 31.964h-1.125v-1.142h1.125v1.142z"></path>
<path d="M34.888 31.964h-1.125v-1.142h1.125v1.142z"></path>
<path d="M30.389 31.964h-1.125v-1.142h1.125v1.142z"></path>
<path d="M29.264 31.964h-1.125v-1.142h1.125v1.142z"></path>
<path d="M28.139 31.964h-1.125v-1.142h1.125v1.142z"></path>
<path d="M21.391 31.964h-1.125v-1.142h1.125v1.142z"></path>
<path d="M14.643 31.964h-1.125v-1.142h1.125v1.142z"></path>
<path d="M7.895 31.964h-1.125v-1.142h1.125v1.142z"></path>
<path d="M6.77 31.964h-1.125v-1.142h1.125v1.142z"></path>
<path d="M5.646 31.964h-1.125v-1.142h1.125v1.142z"></path>
<path d="M1.147 31.964h-1.125v-1.142h1.125v1.142z"></path>
<path d="M36.012 30.823h-1.125v-1.142h1.125v1.142z"></path>
<path d="M31.513 30.823h-1.125v-1.142h1.125v1.142z"></path>
<path d="M30.389 30.823h-1.125v-1.142h1.125v1.142z"></path>
<path d="M29.264 30.823h-1.125v-1.142h1.125v1.142z"></path>
<path d="M21.391 30.823h-1.125v-1.142h1.125v1.142z"></path>
<path d="M20.267 30.823h-1.125v-1.142h1.125v1.142z"></path>
<path d="M15.768 30.823h-1.125v-1.142h1.125v1.142z"></path>
<path d="M14.643 30.823h-1.125v-1.142h1.125v1.142z"></path>
<path d="M6.77 30.823h-1.125v-1.142h1.125v1.142z"></path>
<path d="M5.646 30.823h-1.125v-1.142h1.125v1.142z"></path>
<path d="M4.521 30.823h-1.125v-1.142h1.125v1.142z"></path>
<path d="M32.638 29.681h-1.125v-1.142h1.125v1.142z"></path>
<path d="M31.513 29.681h-1.125v-1.142h1.125v1.142z"></path>
<path d="M30.389 29.681h-1.125v-1.142h1.125v1.142z"></path>
<path d="M21.391 29.681h-1.125v-1.142h1.125v1.142z"></path>
<path d="M20.267 29.681h-1.125v-1.142h1.125v1.142z"></path>
<path d="M19.142 29.681h-1.125v-1.142h1.125v1.142z"></path>
<path d="M16.893 29.681h-1.125v-1.142h1.125v1.142z"></path>
<path d="M15.768 29.681h-1.125v-1.142h1.125v1.142z"></path>
<path d="M14.643 29.681h-1.125v-1.142h1.125v1.142z"></path>
<path d="M5.646 29.681h-1.125v-1.142h1.125v1.142z"></path>
<path d="M4.521 29.681h-1.125v-1.142h1.125v1.142z"></path>
<path d="M3.396 29.681h-1.125v-1.142h1.125v1.142z"></path>
<path d="M33.763 28.54h-1.125v-1.142h1.125v1.142z"></path>
<path d="M32.638 28.54h-1.125v-1.142h1.125v1.142z"></path>
<path d="M31.513 28.54h-1.125v-1.142h1.125v1.142z"></path>
<path d="M25.89 28.54h-1.125v-1.142h1.125v1.142z"></path>
<path d="M24.765 28.54h-1.125v-1.142h1.125v1.142z"></path>
<path d="M23.641 28.54h-1.125v-1.142h1.125v1.142z"></path>
<path d="M20.267 28.54h-1.125v-1.142h1.125v1.142z"></path>
<path d="M19.142 28.54h-1.125v-1.142h1.125v1.142z"></path>
<path d="M16.893 28.54h-1.125v-1.142h1.125v1.142z"></path>
<path d="M15.768 28.54h-1.125v-1.142h1.125v1.142z"></path>
<path d="M12.394 28.54h-1.125v-1.142h1.125v1.142z"></path>
<path d="M11.269 28.54h-1.125v-1.142h1.125v1.142z"></path>
<path d="M10.145 28.54h-1.125v-1.142h1.125v1.142z"></path>
<path d="M4.521 28.54h-1.125v-1.142h1.125v1.142z"></path>
<path d="M3.396 28.54h-1.125v-1.142h1.125v1.142z"></path>
<path d="M2.272 28.54h-1.125v-1.142h1.125v1.142z"></path>
<path d="M34.888 27.398h-1.125v-1.142h1.125v1.142z"></path>
<path d="M33.763 27.398h-1.125v-1.142h1.125v1.142z"></path>
<path d="M32.638 27.398h-1.125v-1.142h1.125v1.142z"></path>
<path d="M24.765 27.398h-1.125v-1.142h1.125v1.142z"></path>
<path d="M23.641 27.398h-1.125v-1.142h1.125v1.142z"></path>
<path d="M22.516 27.398h-1.125v-1.142h1.125v1.142z"></path>
<path d="M19.142 27.398h-1.125v-1.142h1.125v1.142z"></path>
<path d="M16.893 27.398h-1.125v-1.142h1.125v1.142z"></path>
<path d="M13.519 27.398h-1.125v-1.142h1.125v1.142z"></path>
<path d="M12.394 27.398h-1.125v-1.142h1.125v1.142z"></path>
<path d="M11.269 27.398h-1.125v-1.142h1.125v1.142z"></path>
<path d="M3.396 27.398h-1.125v-1.142h1.125v1.142z"></path>
<path d="M2.272 27.398h-1.125v-1.142h1.125v1.142z"></path>
<path d="M1.147 27.398h-1.125v-1.142h1.125v1.142z"></path>
<path d="M34.888 26.256h-1.125v-1.142h1.125v1.142z"></path>
<path d="M33.763 26.256h-1.125v-1.142h1.125v1.142z"></path>
<path d="M23.641 26.256h-1.125v-1.142h1.125v1.142z"></path>
<path d="M22.516 26.256h-1.125v-1.142h1.125v1.142z"></path>
<path d="M21.391 26.256h-1.125v-1.142h1.125v1.142z"></path>
<path d="M14.643 26.256h-1.125v-1.142h1.125v1.142z"></path>
<path d="M13.519 26.256h-1.125v-1.142h1.125v1.142z"></path>
<path d="M12.394 26.256h-1.125v-1.142h1.125v1.142z"></path>
<path d="M2.272 26.256h-1.125v-1.142h1.125v1.142z"></path>
<path d="M1.147 26.256h-1.125v-1.142h1.125v1.142z"></path>
<path d="M34.888 25.115h-1.125v-1.142h1.125v1.142z"></path>
<path d="M29.264 25.115h-1.125v-1.142h1.125v1.142z"></path>
<path d="M19.142 25.115h-1.125v-1.142h1.125v1.142z"></path>
<path d="M16.893 25.115h-1.125v-1.142h1.125v1.142z"></path>
<path d="M6.77 25.115h-1.125v-1.142h1.125v1.142z"></path>
<path d="M1.147 25.115h-1.125v-1.142h1.125v1.142z"></path>
<path d="M29.264 23.973h-1.125v-1.142h1.125v1.142z"></path>
<path d="M28.139 23.973h-1.125v-1.142h1.125v1.142z"></path>
<path d="M20.267 23.973h-1.125v-1.142h1.125v1.142z"></path>
<path d="M19.142 23.973h-1.125v-1.142h1.125v1.142z"></path>
<path d="M16.893 23.973h-1.125v-1.142h1.125v1.142z"></path>
<path d="M15.768 23.973h-1.125v-1.142h1.125v1.142z"></path>
<path d="M7.895 23.973h-1.125v-1.142h1.125v1.142z"></path>
<path d="M6.77 23.973h-1.125v-1.142h1.125v1.142z"></path>
<path d="M29.264 22.832h-1.125v-1.142h1.125v1.142z"></path>
<path d="M28.139 22.832h-1.125v-1.142h1.125v1.142z"></path>
<path d="M27.015 22.832h-1.125v-1.142h1.125v1.142z"></path>
<path d="M21.391 22.832h-1.125v-1.142h1.125v1.142z"></path>
<path d="M20.267 22.832h-1.125v-1.142h1.125v1.142z"></path>
<path d="M15.768 22.832h-1.125v-1.142h1.125v1.142z"></path>
<path d="M14.643 22.832h-1.125v-1.142h1.125v1.142z"></path>
<path d="M9.020 22.832h-1.125v-1.142h1.125v1.142z"></path>
<path d="M7.895 22.832h-1.125v-1.142h1.125v1.142z"></path>
<path d="M6.77 22.832h-1.125v-1.142h1.125v1.142z"></path>
<path d="M28.139 21.69h-1.125v-1.142h1.125v1.142z"></path>
<path d="M27.015 21.69h-1.125v-1.142h1.125v1.142z"></path>
<path d="M22.516 21.69h-1.125v-1.142h1.125v1.142z"></path>
<path d="M21.391 21.69h-1.125v-1.142h1.125v1.142z"></path>
<path d="M14.643 21.69h-1.125v-1.142h1.125v1.142z"></path>
<path d="M13.519 21.69h-1.125v-1.142h1.125v1.142z"></path>
<path d="M9.020 21.69h-1.125v-1.142h1.125v1.142z"></path>
<path d="M7.895 21.69h-1.125v-1.142h1.125v1.142z"></path>
<path d="M32.638 20.549h-1.125v-1.142h1.125v1.142z"></path>
<path d="M31.513 20.549h-1.125v-1.142h1.125v1.142z"></path>
<path d="M30.389 20.549h-1.125v-1.142h1.125v1.142z"></path>
<path d="M27.015 20.549h-1.125v-1.142h1.125v1.142z"></path>
<path d="M23.641 20.549h-1.125v-1.142h1.125v1.142z"></path>
<path d="M22.516 20.549h-1.125v-1.142h1.125v1.142z"></path>
<path d="M13.519 20.549h-1.125v-1.142h1.125v1.142z"></path>
<path d="M12.394 20.549h-1.125v-1.142h1.125v1.142z"></path>
<path d="M9.020 20.549h-1.125v-1.142h1.125v1.142z"></path>
<path d="M5.646 20.549h-1.125v-1.142h1.125v1.142z"></path>
<path d="M4.521 20.549h-1.125v-1.142h1.125v1.142z"></path>
<path d="M3.396 20.549h-1.125v-1.142h1.125v1.142z"></path>
<path d="M36.012 19.407h-1.125v-1.142h1.125v1.142z"></path>
<path d="M31.513 19.407h-1.125v-1.142h1.125v1.142z"></path>
<path d="M30.389 19.407h-1.125v-1.142h1.125v1.142z"></path>
<path d="M29.264 19.407h-1.125v-1.142h1.125v1.142z"></path>
<path d="M24.765 19.407h-1.125v-1.142h1.125v1.142z"></path>
<path d="M23.641 19.407h-1.125v-1.142h1.125v1.142z"></path>
<path d="M12.394 19.407h-1.125v-1.142h1.125v1.142z"></path>
<path d="M11.269 19.407h-1.125v-1.142h1.125v1.142z"></path>
<path d="M6.77 19.407h-1.125v-1.142h1.125v1.142z"></path>
<path d="M5.646 19.407h-1.125v-1.142h1.125v1.142z"></path>
<path d="M4.521 19.407h-1.125v-1.142h1.125v1.142z"></path>
<path d="M36.012 18.265h-1.125v-1.142h1.125v1.142z"></path>
<path d="M34.888 18.265h-1.125v-1.142h1.125v1.142z"></path>
<path d="M30.389 18.265h-1.125v-1.142h1.125v1.142z"></path>
<path d="M29.264 18.265h-1.125v-1.142h1.125v1.142z"></path>
<path d="M28.139 18.265h-1.125v-1.142h1.125v1.142z"></path>
<path d="M25.89 18.265h-1.125v-1.142h1.125v1.142z"></path>
<path d="M24.765 18.265h-1.125v-1.142h1.125v1.142z"></path>
<path d="M18.017 18.265h-1.125v-1.142h1.125v1.142z"></path>
<path d="M11.269 18.265h-1.125v-1.142h1.125v1.142z"></path>
<path d="M10.145 18.265h-1.125v-1.142h1.125v1.142z"></path>
<path d="M7.895 18.265h-1.125v-1.142h1.125v1.142z"></path>
<path d="M6.77 18.265h-1.125v-1.142h1.125v1.142z"></path>
<path d="M5.646 18.265h-1.125v-1.142h1.125v1.142z"></path>
<path d="M1.125 17.124h-1.125v-1.142h1.125v1.142z"></path>
<path d="M2.272 17.124h-1.125v-1.142h1.125v1.142z"></path>
<path d="M1.125 18.265h-1.125v-1.142h1.125v1.142z"></path>
<path d="M1.125 15.982h-1.125v-1.142h1.125v1.142z"></path>
<path d="M36.012 17.124h-1.125v-1.142h1.125v1.142z"></path>
<path d="M34.888 17.124h-1.125v-1.142h1.125v1.142z"></path>
<path d="M33.763 17.124h-1.125v-1.142h1.125v1.142z"></path>
<path d="M19.142 17.124h-1.125v-1.142h1.125v1.142z"></path>
<path d="M18.017 17.124h-1.125v-1.142h1.125v1.142z"></path>
<path d="M16.893 17.124h-1.125v-1.142h1.125v1.142z"></path>
<path d="M36.012 15.982h-1.125v-1.142h1.125v1.142z"></path>
<path d="M34.888 15.982h-1.125v-1.142h1.125v1.142z"></path>
<path d="M30.389 15.982h-1.125v-1.142h1.125v1.142z"></path>
<path d="M29.264 15.982h-1.125v-1.142h1.125v1.142z"></path>
<path d="M28.139 15.982h-1.125v-1.142h1.125v1.142z"></path>
<path d="M25.89 15.982h-1.125v-1.142h1.125v1.142z"></path>
<path d="M24.765 15.982h-1.125v-1.142h1.125v1.142z"></path>
<path d="M18.017 15.982h-1.125v-1.142h1.125v1.142z"></path>
<path d="M11.269 15.982h-1.125v-1.142h1.125v1.142z"></path>
<path d="M10.145 15.982h-1.125v-1.142h1.125v1.142z"></path>
<path d="M7.895 15.982h-1.125v-1.142h1.125v1.142z"></path>
<path d="M6.77 15.982h-1.125v-1.142h1.125v1.142z"></path>
<path d="M5.646 15.982h-1.125v-1.142h1.125v1.142z"></path>
<path d="M36.012 14.841h-1.125v-1.142h1.125v1.142z"></path>
<path d="M31.513 14.841h-1.125v-1.142h1.125v1.142z"></path>
<path d="M30.389 14.841h-1.125v-1.142h1.125v1.142z"></path>
<path d="M29.264 14.841h-1.125v-1.142h1.125v1.142z"></path>
<path d="M24.765 14.841h-1.125v-1.142h1.125v1.142z"></path>
<path d="M23.641 14.841h-1.125v-1.142h1.125v1.142z"></path>
<path d="M12.394 14.841h-1.125v-1.142h1.125v1.142z"></path>
<path d="M11.269 14.841h-1.125v-1.142h1.125v1.142z"></path>
<path d="M6.77 14.841h-1.125v-1.142h1.125v1.142z"></path>
<path d="M5.646 14.841h-1.125v-1.142h1.125v1.142z"></path>
<path d="M4.521 14.841h-1.125v-1.142h1.125v1.142z"></path>
<path d="M32.638 13.699h-1.125v-1.142h1.125v1.142z"></path>
<path d="M31.513 13.699h-1.125v-1.142h1.125v1.142z"></path>
<path d="M30.389 13.699h-1.125v-1.142h1.125v1.142z"></path>
<path d="M27.015 13.699h-1.125v-1.142h1.125v1.142z"></path>
<path d="M23.641 13.699h-1.125v-1.142h1.125v1.142z"></path>
<path d="M22.516 13.699h-1.125v-1.142h1.125v1.142z"></path>
<path d="M13.519 13.699h-1.125v-1.142h1.125v1.142z"></path>
<path d="M12.394 13.699h-1.125v-1.142h1.125v1.142z"></path>
<path d="M9.020 13.699h-1.125v-1.142h1.125v1.142z"></path>
<path d="M5.646 13.699h-1.125v-1.142h1.125v1.142z"></path>
<path d="M4.521 13.699h-1.125v-1.142h1.125v1.142z"></path>
<path d="M3.396 13.699h-1.125v-1.142h1.125v1.142z"></path>
<path d="M28.139 12.557h-1.125v-1.142h1.125v1.142z"></path>
<path d="M27.015 12.557h-1.125v-1.142h1.125v1.142z"></path>
<path d="M22.516 12.557h-1.125v-1.142h1.125v1.142z"></path>
<path d="M21.391 12.557h-1.125v-1.142h1.125v1.142z"></path>
<path d="M14.643 12.557h-1.125v-1.142h1.125v1.142z"></path>
<path d="M13.519 12.557h-1.125v-1.142h1.125v1.142z"></path>
<path d="M9.020 12.557h-1.125v-1.142h1.125v1.142z"></path>
<path d="M7.895 12.557h-1.125v-1.142h1.125v1.142z"></path>
<path d="M29.264 11.416h-1.125v-1.142h1.125v1.142z"></path>
<path d="M28.139 11.416h-1.125v-1.142h1.125v1.142z"></path>
<path d="M27.015 11.416h-1.125v-1.142h1.125v1.142z"></path>
<path d="M21.391 11.416h-1.125v-1.142h1.125v1.142z"></path>
<path d="M20.267 11.416h-1.125v-1.142h1.125v1.142z"></path>
<path d="M15.768 11.416h-1.125v-1.142h1.125v1.142z"></path>
<path d="M14.643 11.416h-1.125v-1.142h1.125v1.142z"></path>
<path d="M9.020 11.416h-1.125v-1.142h1.125v1.142z"></path>
<path d="M7.895 11.416h-1.125v-1.142h1.125v1.142z"></path>
<path d="M6.77 11.416h-1.125v-1.142h1.125v1.142z"></path>
<path d="M29.264 10.274h-1.125v-1.142h1.125v1.142z"></path>
<path d="M28.139 10.274h-1.125v-1.142h1.125v1.142z"></path>
<path d="M20.267 10.274h-1.125v-1.142h1.125v1.142z"></path>
<path d="M19.142 10.274h-1.125v-1.142h1.125v1.142z"></path>
<path d="M16.893 10.274h-1.125v-1.142h1.125v1.142z"></path>
<path d="M15.768 10.274h-1.125v-1.142h1.125v1.142z"></path>
<path d="M7.895 10.274h-1.125v-1.142h1.125v1.142z"></path>
<path d="M6.77 10.274h-1.125v-1.142h1.125v1.142z"></path>
<path d="M29.264 9.133h-1.125v-1.142h1.125v1.142z"></path>
<path d="M19.142 9.133h-1.125v-1.142h1.125v1.142z"></path>
<path d="M16.893 9.133h-1.125v-1.142h1.125v1.142z"></path>
<path d="M6.77 9.133h-1.125v-1.142h1.125v1.142z"></path>
<path d="M34.888 7.991h-1.125v-1.142h1.125v1.142z"></path>
<path d="M1.147 7.991h-1.125v-1.142h1.125v1.142z"></path>
<path d="M34.888 6.849h-1.125v-1.142h1.125v1.142z"></path>
<path d="M33.763 6.849h-1.125v-1.142h1.125v1.142z"></path>
<path d="M23.641 6.849h-1.125v-1.142h1.125v1.142z"></path>
<path d="M22.516 6.849h-1.125v-1.142h1.125v1.142z"></path>
<path d="M21.391 6.849h-1.125v-1.142h1.125v1.142z"></path>
<path d="M14.643 6.849h-1.125v-1.142h1.125v1.142z"></path>
<path d="M13.519 6.849h-1.125v-1.142h1.125v1.142z"></path>
<path d="M12.394 6.849h-1.125v-1.142h1.125v1.142z"></path>
<path d="M2.272 6.849h-1.125v-1.142h1.125v1.142z"></path>
<path d="M1.147 6.849h-1.125v-1.142h1.125v1.142z"></path>
<path d="M34.888 5.708h-1.125v-1.142h1.125v1.142z"></path>
<path d="M33.763 5.708h-1.125v-1.142h1.125v1.142z"></path>
<path d="M32.638 5.708h-1.125v-1.142h1.125v1.142z"></path>
<path d="M24.765 5.708h-1.125v-1.142h1.125v1.142z"></path>
<path d="M23.641 5.708h-1.125v-1.142h1.125v1.142z"></path>
<path d="M22.516 5.708h-1.125v-1.142h1.125v1.142z"></path>
<path d="M19.142 5.708h-1.125v-1.142h1.125v1.142z"></path>
<path d="M16.893 5.708h-1.125v-1.142h1.125v1.142z"></path>
<path d="M13.519 5.708h-1.125v-1.142h1.125v1.142z"></path>
<path d="M12.394 5.708h-1.125v-1.142h1.125v1.142z"></path>
<path d="M11.269 5.708h-1.125v-1.142h1.125v1.142z"></path>
<path d="M3.396 5.708h-1.125v-1.142h1.125v1.142z"></path>
<path d="M2.272 5.708h-1.125v-1.142h1.125v1.142z"></path>
<path d="M1.147 5.708h-1.125v-1.142h1.125v1.142z"></path>
<path d="M33.763 4.566h-1.125v-1.142h1.125v1.142z"></path>
<path d="M32.638 4.566h-1.125v-1.142h1.125v1.142z"></path>
<path d="M31.513 4.566h-1.125v-1.142h1.125v1.142z"></path>
<path d="M25.89 4.566h-1.125v-1.142h1.125v1.142z"></path>
<path d="M24.765 4.566h-1.125v-1.142h1.125v1.142z"></path>
<path d="M23.641 4.566h-1.125v-1.142h1.125v1.142z"></path>
<path d="M20.267 4.566h-1.125v-1.142h1.125v1.142z"></path>
<path d="M19.142 4.566h-1.125v-1.142h1.125v1.142z"></path>
<path d="M16.893 4.566h-1.125v-1.142h1.125v1.142z"></path>
<path d="M15.768 4.566h-1.125v-1.142h1.125v1.142z"></path>
<path d="M12.394 4.566h-1.125v-1.142h1.125v1.142z"></path>
<path d="M11.269 4.566h-1.125v-1.142h1.125v1.142z"></path>
<path d="M10.145 4.566h-1.125v-1.142h1.125v1.142z"></path>
<path d="M4.521 4.566h-1.125v-1.142h1.125v1.142z"></path>
<path d="M3.396 4.566h-1.125v-1.142h1.125v1.142z"></path>
<path d="M2.272 4.566h-1.125v-1.142h1.125v1.142z"></path>
<path d="M32.638 3.425h-1.125v-1.142h1.125v1.142z"></path>
<path d="M31.513 3.425h-1.125v-1.142h1.125v1.142z"></path>
<path d="M30.389 3.425h-1.125v-1.142h1.125v1.142z"></path>
<path d="M21.391 3.425h-1.125v-1.142h1.125v1.142z"></path>
<path d="M20.267 3.425h-1.125v-1.142h1.125v1.142z"></path>
<path d="M19.142 3.425h-1.125v-1.142h1.125v1.142z"></path>
<path d="M16.893 3.425h-1.125v-1.142h1.125v1.142z"></path>
<path d="M15.768 3.425h-1.125v-1.142h1.125v1.142z"></path>
<path d="M14.643 3.425h-1.125v-1.142h1.125v1.142z"></path>
<path d="M5.646 3.425h-1.125v-1.142h1.125v1.142z"></path>
<path d="M4.521 3.425h-1.125v-1.142h1.125v1.142z"></path>
<path d="M3.396 3.425h-1.125v-1.142h1.125v1.142z"></path>
<path d="M36.012 2.283h-1.125v-1.142h1.125v1.142z"></path>
<path d="M31.513 2.283h-1.125v-1.142h1.125v1.142z"></path>
<path d="M30.389 2.283h-1.125v-1.142h1.125v1.142z"></path>
<path d="M29.264 2.283h-1.125v-1.142h1.125v1.142z"></path>
<path d="M21.391 2.283h-1.125v-1.142h1.125v1.142z"></path>
<path d="M20.267 2.283h-1.125v-1.142h1.125v1.142z"></path>
<path d="M15.768 2.283h-1.125v-1.142h1.125v1.142z"></path>
<path d="M14.643 2.283h-1.125v-1.142h1.125v1.142z"></path>
<path d="M6.77 2.283h-1.125v-1.142h1.125v1.142z"></path>
<path d="M5.646 2.283h-1.125v-1.142h1.125v1.142z"></path>
<path d="M4.521 2.283h-1.125v-1.142h1.125v1.142z"></path>
<path d="M36.012 1.142h-1.125v-1.142h1.125v1.142z"></path>
<path d="M34.888 1.142h-1.125v-1.142h1.125v1.142z"></path>
<path d="M30.389 1.142h-1.125v-1.142h1.125v1.142z"></path>
<path d="M29.264 1.142h-1.125v-1.142h1.125v1.142z"></path>
<path d="M28.139 1.142h-1.125v-1.142h1.125v1.142z"></path>
<path d="M21.391 1.142h-1.125v-1.142h1.125v1.142z"></path>
<path d="M14.643 1.142h-1.125v-1.142h1.125v1.142z"></path>
<path d="M7.895 1.142h-1.125v-1.142h1.125v1.142z"></path>
<path d="M6.77 1.142h-1.125v-1.142h1.125v1.142z"></path>
<path d="M5.646 1.142h-1.125v-1.142h1.125v1.142z"></path>
<path d="M1.147 1.142h-1.125v-1.142h1.125v1.142z"></path>
</symbol>
<symbol id="icon-youtube" viewBox="0 0 32 32">
<path d="M24.24 6c-1.36-0.080-4.16-0.16-8.4-0.16h-0.56c-4.080 0-6.8 0.080-8.16 0.24-1.84 0.16-3.12 0.64-3.84 1.28-0.64 0.56-1.12 1.6-1.28 2.96-0.080 0.88-0.16 2.72-0.16 5.52v0.4c0 2.64 0.080 4.48 0.24 5.36 0.24 1.28 0.64 2.24 1.44 2.8 0.8 0.64 2.16 1.040 4.080 1.2 1.36 0.080 4.16 0.16 8.4 0.16h0.56c4.080 0 6.8-0.080 8.16-0.24 1.84-0.16 3.12-0.64 3.84-1.28 0.64-0.56 1.12-1.6 1.28-2.96 0.080-0.88 0.16-2.72 0.16-5.52v-0.4c0-2.64-0.080-4.48-0.24-5.36-0.24-1.28-0.64-2.24-1.44-2.8-0.8-0.64-2.16-1.040-4.080-1.2zM21.12 15.84l-8.8 5.28v-10.56l8.8 5.28z"></path>
</symbol>
</defs>
</svg>
